#!OML:ASF F:\VICON\USERDATA\INSTALL\rory3\rory3.ASF
:FULLY-SPECIFIED
:DEGREES
2707
root 0.927222 14.7414 -10.8656 -543.305 -36.6217 538.042
lowerback 18.6923 0.712343 -7.51585
upperback -0.30788 -0.615523 1.68556
thorax -10.8007 0.144834 6.34869
lowerneck -12.6864 -6.74685 -4.09143
upperneck 18.8464 -9.9606 4.94309
head 8.4051 -4.69065 1.17663
rclavicle -6.21823e-014 3.77691e-015
rhumerus 64.0713 56.34 -26.3354
rradius 60.7875
rwrist -2.08179
rhand 1.69239 22.4899
rfingers 7.12502
rthumb 27.2104 -5.56769
lclavicle -6.21823e-014 3.77691e-015
lhumerus -8.08299 -63.8704 86.8768
lradius 39.5654
lwrist 68.4289
lhand 4.10539 31.343
lfingers 7.12502
lthumb 29.5163 59.0168
rfemur -37.8431 0.583943 3.18808
rtibia 42.1346
rfoot 1.13971 -8.54418
rtoes -35.2423
lfemur -25.5309 34.6764 -31.3904
ltibia 60.0903
lfoot -36.0031 12.288
ltoes 11.0788
2708
root 0.916365 14.7346 -10.8668 -543.305 -36.5167 538.013
lowerback 18.7999 0.683877 -7.43106
upperback -0.359379 -0.648263 1.63987
thorax -10.9156 0.130833 6.26121
lowerneck -12.9539 -6.72526 -4.20863
upperneck 19.1508 -9.95149 5.04084
head 8.56747 -4.6777 1.21429
rclavicle 2.24627e-014 2.5842e-015
rhumerus 63.9432 56.3497 -26.4024
rradius 61.0235
rwrist -2.09322
rhand 1.61731 22.6333
rfingers 7.12502
rthumb 27.1385 -5.43555
lclavicle 2.24627e-014 2.5842e-015
lhumerus -8.35935 -63.9797 87.1152
lradius 39.7034
lwrist 68.5403
lhand 4.1 31.0653
lfingers 7.12502
lthumb 29.5112 58.74
rfemur -37.953 0.111952 3.287
rtibia 42.2961
rfoot 1.1042 -8.14889
rtoes -36.39
lfemur -25.4564 34.7653 -31.3681
ltibia 60.1264
lfoot -36.2377 11.8136
ltoes 12.2527
2709
root 0.912253 14.7253 -10.8699 -543.175 -36.3958 537.686
lowerback 18.9796 0.710213 -7.71917
upperback -0.380342 -0.704434 1.54577
thorax -11.0322 0.123483 6.34276
lowerneck -13.0535 -6.6769 -3.93462
upperneck 19.2149 -9.90978 4.87818
head 8.58183 -4.65249 1.11788
rclavicle 4.49875e-014 4.96962e-015
rhumerus 64.0085 56.3736 -26.3273
rradius 61.3038
rwrist -2.04519
rhand 1.44055 22.6797
rfingers 7.12502
rthumb 26.9694 -5.41545
lclavicle 4.49875e-014 4.96962e-015
lhumerus -8.45408 -63.8401 87.2263
lradius 39.6322
lwrist 68.2292
lhand 4.50215 30.4516
lfingers 7.12502
lthumb 29.895 58.0578
rfemur -38.0849 -0.247595 3.11686
rtibia 42.4921
rfoot 1.11141 -7.8427
rtoes -36.927
lfemur -25.3237 34.8081 -31.584
ltibia 60.0754
lfoot -36.3463 11.6826
ltoes 12.6258
2710
root 0.902495 14.7185 -10.8694 -543.048 -36.2724 537.366
lowerback 19.0411 0.69001 -7.96854
upperback -0.38552 -0.802918 1.4639
thorax -11.0561 0.0895031 6.4237
lowerneck -13.2625 -6.62644 -4.09367
upperneck 19.4106 -9.84318 4.99084
head 8.69746 -4.61515 1.17837
rclavicle 5.73991e-015 -1.31198e-014
rhumerus 64.2557 56.5145 -26.1384
rradius 61.5885
rwrist -2.05719
rhand 1.11183 22.4819
rfingers 7.12502
rthumb 26.6549 -5.66147
lclavicle 5.73991e-015 -1.31198e-014
lhumerus -8.59124 -63.3855 87.4059
lradius 39.5621
lwrist 67.9045
lhand 4.6753 30.033
lfingers 7.12502
lthumb 30.0602 57.6093
rfemur -38.2115 -0.472385 2.87542
rtibia 42.6997
rfoot 1.1207 -7.70217
rtoes -36.6588
lfemur -25.1622 34.9598 -31.8625
ltibia 59.9572
lfoot -36.2293 12.1815
ltoes 11.3423
2711
root 0.890878 14.7158 -10.859 -542.836 -36.1535 537.105
lowerback 18.9782 0.635412 -8.09548
upperback -0.395421 -0.905405 1.40066
thorax -11.014 0.0446016 6.45219
lowerneck -13.4073 -6.56388 -4.20379
upperneck 19.53 -9.74928 5.04306
head 8.76834 -4.56912 1.2184
rclavicle 1.72694e-015 1.68967e-014
rhumerus 64.4014 56.5545 -25.984
rradius 61.8979
rwrist -2.11605
rhand 1.08877 22.5507
rfingers 7.12502
rthumb 26.6328 -5.59604
lclavicle 1.72694e-015 1.68967e-014
lhumerus -8.60181 -63.3094 87.3881
lradius 39.748
lwrist 68.0665
lhand 4.3798 30.443
lfingers 7.12502
lthumb 29.7782 58.0702
rfemur -38.4138 -0.678047 2.65862
rtibia 42.8601
rfoot 1.2223 -7.55157
rtoes -36.6928
lfemur -25.2152 35.0913 -32.228
ltibia 59.8693
lfoot -36.0952 12.7842
ltoes 9.63411
2712
root 0.88348 14.7129 -10.852 -542.581 -35.985 536.884
lowerback 18.8034 0.617389 -8.31092
upperback -0.370915 -0.963194 1.38112
thorax -10.8751 0.0206996 6.56435
lowerneck -13.4584 -6.51144 -4.17832
upperneck 19.4268 -9.6666 5.05583
head 8.73768 -4.52481 1.22894
rclavicle 6.57977e-014 -5.36719e-015
rhumerus 64.8047 56.3652 -25.5198
rradius 62.2157
rwrist -2.47661
rhand 1.45146 22.7631
rfingers 7.12502
rthumb 26.9799 -5.3304
lclavicle 6.57977e-014 -5.36719e-015
lhumerus -8.38406 -63.3711 87.1689
lradius 39.9568
lwrist 68.4599
lhand 4.34321 30.8461
lfingers 7.12502
lthumb 29.7433 58.4796
rfemur -38.6965 -0.698783 2.47491
rtibia 42.9648
rfoot 1.34469 -7.58182
rtoes -36.1392
lfemur -25.388 35.0393 -32.5728
ltibia 59.8541
lfoot -36.2185 12.6986
ltoes 10.5706
2713
root 0.878493 14.7078 -10.8523 -542.683 -35.8278 537.034
lowerback 18.767 0.589339 -8.24555
upperback -0.334195 -0.977615 1.42603
thorax -10.81 0.00651273 6.57931
lowerneck -13.5166 -6.47013 -4.14667
upperneck 19.3975 -9.60923 5.06022
head 8.73404 -4.4932 1.23114
rclavicle 9.95166e-015 -2.50469e-014
rhumerus 64.815 56.2411 -25.5293
rradius 62.4286
rwrist -2.50434
rhand 1.67453 22.9493
rfingers 7.12502
rthumb 27.1933 -5.11096
lclavicle 9.95166e-015 -2.50469e-014
lhumerus -8.21588 -63.6006 86.9907
lradius 40.1605
lwrist 69.0389
lhand 4.46338 31.0771
lfingers 7.12502
lthumb 29.858 58.69
rfemur -38.7495 -0.611121 2.63891
rtibia 42.9974
rfoot 1.42682 -7.77117
rtoes -36.3622
lfemur -25.4392 35.0397 -32.4653
ltibia 59.9475
lfoot -36.2493 12.6876
ltoes 11.6019
2714
root 0.873266 14.7067 -10.8512 -542.917 -35.7151 537.352
lowerback 18.9046 0.508846 -8.00906
upperback -0.388144 -1.03883 1.47491
thorax -10.9402 -0.0245614 6.52022
lowerneck -13.4763 -6.41132 -4.01927
upperneck 19.4181 -9.5546 5.01826
head 8.72229 -4.46563 1.20462
rclavicle 6.99349e-014 2.38542e-014
rhumerus 64.4656 56.3417 -26.0534
rradius 62.5129
rwrist -2.33772
rhand 1.82635 23.2592
rfingers 7.12502
rthumb 27.3385 -4.77825
lclavicle 6.99349e-014 2.38542e-014
lhumerus -8.36275 -63.7235 87.0192
lradius 40.3086
lwrist 69.3802
lhand 4.57318 30.9876
lfingers 7.12502
lthumb 29.9628 58.5816
rfemur -38.7282 -0.489335 2.91902
rtibia 43.0115
rfoot 1.43773 -8.06598
rtoes -35.9541
lfemur -25.4606 35.123 -32.1957
ltibia 60.0519
lfoot -36.2093 13.0133
ltoes 10.8618
2715
root 0.86658 14.7031 -10.8504 -542.991 -35.5588 537.464
lowerback 19.0174 0.480037 -7.92141
upperback -0.495145 -1.06615 1.48022
thorax -11.1221 -0.0274261 6.48921
lowerneck -13.3993 -6.39822 -3.93329
upperneck 19.5625 -9.56649 4.94106
head 8.74946 -4.47778 1.16391
rclavicle 1.31571e-013 -7.95139e-015
rhumerus 64.0591 56.478 -26.5439
rradius 62.6202
rwrist -2.31489
rhand 2.01797 23.7179
rfingers 7.12502
rthumb 27.5218 -4.29059
lclavicle 1.31571e-013 -7.95139e-015
lhumerus -8.76139 -63.8831 87.323
lradius 40.4473
lwrist 69.6538
lhand 4.42048 30.3556
lfingers 7.12502
lthumb 29.8171 57.9759
rfemur -38.7711 -0.370597 3.01605
rtibia 43.0127
rfoot 1.49101 -8.2597
rtoes -35.1823
lfemur -25.5397 35.3821 -32.1486
ltibia 60.1335
lfoot -35.9481 13.8367
ltoes 8.14668
